<svg xmlns="http://www.w3.org/2000/svg" viewBox="0 0 500 500"><g id="freepik--background-complete--inject-61"><rect x="416.78" y="398.49" width="33.12" height="0.25" style="fill:#ebebeb"></rect><rect x="322.53" y="401.21" width="8.69" height="0.25" style="fill:#ebebeb"></rect><rect x="396.59" y="389.21" width="19.19" height="0.25" style="fill:#ebebeb"></rect><rect x="52.46" y="390.89" width="43.19" height="0.25" style="fill:#ebebeb"></rect><rect x="104.56" y="390.89" width="6.33" height="0.25" style="fill:#ebebeb"></rect><rect x="131.47" y="395.11" width="93.68" height="0.25" style="fill:#ebebeb"></rect><path d="M237,337.8H43.92a5.71,5.71,0,0,1-5.71-5.71V60.66A5.71,5.71,0,0,1,43.92,55H237a5.71,5.71,0,0,1,5.71,5.71V332.09A5.71,5.71,0,0,1,237,337.8ZM43.92,55.2a5.47,5.47,0,0,0-5.46,5.46V332.09a5.47,5.47,0,0,0,5.46,5.46H237a5.47,5.47,0,0,0,5.46-5.46V60.66A5.47,5.47,0,0,0,237,55.2Z" style="fill:#ebebeb"></path><path d="M453.31,337.8H260.21a5.72,5.72,0,0,1-5.71-5.71V60.66A5.72,5.72,0,0,1,260.21,55h193.1A5.71,5.71,0,0,1,459,60.66V332.09A5.71,5.71,0,0,1,453.31,337.8ZM260.21,55.2a5.47,5.47,0,0,0-5.46,5.46V332.09a5.47,5.47,0,0,0,5.46,5.46h193.1a5.47,5.47,0,0,0,5.46-5.46V60.66a5.47,5.47,0,0,0-5.46-5.46Z" style="fill:#ebebeb"></path><rect y="382.4" width="500" height="0.25" style="fill:#ebebeb"></rect><rect x="302.08" y="103.61" width="1.8" height="140.37" style="fill:#e0e0e0"></rect><rect x="414.13" y="103.61" width="1.8" height="140.37" style="fill:#e0e0e0"></rect><polygon points="422.98 112.44 295.03 112.44 292.33 106.14 425.68 106.14 422.98 112.44" style="fill:#ebebeb"></polygon><polygon points="422.98 121.09 295.03 121.09 292.33 114.79 425.68 114.79 422.98 121.09" style="fill:#ebebeb"></polygon><polygon points="422.98 129.74 295.03 129.74 292.33 123.44 425.68 123.44 422.98 129.74" style="fill:#ebebeb"></polygon><polygon points="422.98 138.38 295.03 138.38 292.33 132.09 425.68 132.09 422.98 138.38" style="fill:#ebebeb"></polygon><polygon points="422.98 147.03 295.03 147.03 292.33 140.74 425.68 140.74 422.98 147.03" style="fill:#ebebeb"></polygon><polygon points="422.98 155.68 295.03 155.68 292.33 149.38 425.68 149.38 422.98 155.68" style="fill:#ebebeb"></polygon><polygon points="422.98 164.33 295.03 164.33 292.33 158.03 425.68 158.03 422.98 164.33" style="fill:#ebebeb"></polygon><polygon points="422.98 172.98 295.03 172.98 292.33 166.68 425.68 166.68 422.98 172.98" style="fill:#ebebeb"></polygon><polygon points="422.98 181.63 295.03 181.63 292.33 175.33 425.68 175.33 422.98 181.63" style="fill:#ebebeb"></polygon><polygon points="422.98 190.28 295.03 190.28 292.33 183.98 425.68 183.98 422.98 190.28" style="fill:#ebebeb"></polygon><polygon points="422.98 198.93 295.03 198.93 292.33 192.63 425.68 192.63 422.98 198.93" style="fill:#ebebeb"></polygon><polygon points="422.98 207.58 295.03 207.58 292.33 201.28 425.68 201.28 422.98 207.58" style="fill:#ebebeb"></polygon><polygon points="422.98 216.23 295.03 216.23 292.33 209.93 425.68 209.93 422.98 216.23" style="fill:#ebebeb"></polygon><polygon points="422.98 224.88 295.03 224.88 292.33 218.58 425.68 218.58 422.98 224.88" style="fill:#ebebeb"></polygon><polygon points="422.98 233.53 295.03 233.53 292.33 227.23 425.68 227.23 422.98 233.53" style="fill:#ebebeb"></polygon><polygon points="422.98 242.18 295.03 242.18 292.33 235.88 425.68 235.88 422.98 242.18" style="fill:#ebebeb"></polygon><rect x="292.33" y="242.18" width="133.35" height="3.6" style="fill:#e0e0e0"></rect><rect x="287.68" y="98.25" width="142.65" height="8.4" style="fill:#e0e0e0"></rect><path d="M289.15,182.81h0a1.45,1.45,0,0,1-1.46-1.45v-49a1.45,1.45,0,0,1,1.46-1.45h0a1.45,1.45,0,0,1,1.45,1.45v49A1.45,1.45,0,0,1,289.15,182.81Z" style="fill:#e0e0e0"></path><rect x="288.62" y="104.96" width="1.05" height="29.1" style="fill:#e0e0e0"></rect><path d="M65.78,74.58H215.14A6.45,6.45,0,0,1,221.59,81v34.22a0,0,0,0,1,0,0H59.34a0,0,0,0,1,0,0V81A6.45,6.45,0,0,1,65.78,74.58Z" style="fill:#f5f5f5"></path><path d="M59.34,118H221.59a0,0,0,0,1,0,0v5.86a6.45,6.45,0,0,1-6.45,6.45H65.78a6.45,6.45,0,0,1-6.45-6.45V118A0,0,0,0,1,59.34,118Z" style="fill:#f0f0f0"></path><rect x="65.69" y="101.59" width="19.38" height="8.26" rx="2.3" style="fill:#e0e0e0"></rect><rect x="205.81" y="101.59" width="9.21" height="8.26" rx="2.3" style="fill:#e0e0e0"></rect><polygon points="217.57 121.62 62.83 121.62 65.37 120.34 215.03 120.34 217.57 121.62" style="fill:#e0e0e0"></polygon><polygon points="217.57 124.8 62.83 124.8 65.37 123.52 215.03 123.52 217.57 124.8" style="fill:#e0e0e0"></polygon><polygon points="217.57 127.98 62.83 127.98 65.37 126.7 215.03 126.7 217.57 127.98" style="fill:#e0e0e0"></polygon><path d="M117.93,329.61H69a5.3,5.3,0,0,1-5.3-5.3h0A5.3,5.3,0,0,1,69,319h48.92a5.31,5.31,0,0,1,5.31,5.31h0A5.3,5.3,0,0,1,117.93,329.61Z" style="fill:#ebebeb"></path><path d="M60.38,301l-2.64-37.75a5.31,5.31,0,0,1,4.93-5.66h0a5.31,5.31,0,0,1,5.66,4.92L71,300.26a5.31,5.31,0,0,1-4.92,5.67h0A5.32,5.32,0,0,1,60.38,301Z" style="fill:#ebebeb"></path><path d="M90,332.56H65.21a8.07,8.07,0,0,1-8.07-8.06V288.24a1.47,1.47,0,0,1,1.48-1.47h0a1.47,1.47,0,0,1,1.47,1.47V324.5a5.12,5.12,0,0,0,5.12,5.12H90Z" style="fill:#e0e0e0"></path><path d="M97.1,367.31V333.55l2-.62a5.38,5.38,0,0,0,3.75-5.11H84.12a5.38,5.38,0,0,0,3.75,5.11l2,.62v33.76l-15.55,7v2.95l19.17-6.71,19.18,6.71V374.3Z" style="fill:#e0e0e0"></path><path d="M77.65,379.32A3.36,3.36,0,1,1,74.3,376,3.35,3.35,0,0,1,77.65,379.32Z" style="fill:#e0e0e0"></path><path d="M116,379.32a3.36,3.36,0,1,1-3.36-3.36A3.35,3.35,0,0,1,116,379.32Z" style="fill:#e0e0e0"></path><path d="M232.47,329.61h48.92a5.3,5.3,0,0,0,5.31-5.3h0a5.31,5.31,0,0,0-5.31-5.31H232.47a5.31,5.31,0,0,0-5.31,5.31h0A5.3,5.3,0,0,0,232.47,329.61Z" style="fill:#ebebeb"></path><path d="M290,301l2.64-37.75a5.31,5.31,0,0,0-4.92-5.66h0a5.31,5.31,0,0,0-5.67,4.92l-2.64,37.75a5.32,5.32,0,0,0,4.93,5.67h0A5.31,5.31,0,0,0,290,301Z" style="fill:#ebebeb"></path><path d="M260.4,332.56h24.79a8.06,8.06,0,0,0,8.07-8.06V288.24a1.47,1.47,0,0,0-1.47-1.47h0a1.47,1.47,0,0,0-1.48,1.47V324.5a5.12,5.12,0,0,1-5.12,5.12H260.4Z" style="fill:#e0e0e0"></path><path d="M253.31,367.31V333.55l-2-.62a5.37,5.37,0,0,1-3.74-5.11h18.7a5.37,5.37,0,0,1-3.74,5.11l-2,.62v33.76l15.56,7v2.95l-19.18-6.71-19.18,6.71V374.3Z" style="fill:#e0e0e0"></path><path d="M272.75,379.32a3.36,3.36,0,1,0,3.36-3.36A3.36,3.36,0,0,0,272.75,379.32Z" style="fill:#e0e0e0"></path><path d="M234.4,379.32a3.36,3.36,0,1,0,3.35-3.36A3.35,3.35,0,0,0,234.4,379.32Z" style="fill:#e0e0e0"></path><rect x="116.54" y="293.33" width="119" height="12.55" style="fill:#ebebeb"></rect><rect x="92.3" y="289.59" width="167.92" height="7.48" style="fill:#f5f5f5"></rect><polygon points="244.61 383.78 252.2 383.78 239.07 297.08 230.18 297.08 244.61 383.78" style="fill:#e6e6e6"></polygon><polygon points="122.33 297.08 113.43 297.08 100.31 383.78 107.89 383.78 122.33 297.08" style="fill:#e6e6e6"></polygon></g><g id="freepik--Shadow--inject-61"><ellipse id="freepik--path--inject-61" cx="245.18" cy="412.39" rx="193.89" ry="11.32" style="fill:#f5f5f5"></ellipse></g><g id="freepik--office-plan--inject-61"><rect x="154.44" y="298.52" width="196.3" height="10.41" style="fill:#263238"></rect><rect x="154.44" y="298.52" width="196.3" height="10.41" style="fill:#263238"></rect><rect x="154.44" y="305.77" width="196.3" height="3.16"></rect><polygon points="310.54 369.68 194.63 369.68 197.06 358.96 308.11 358.96 310.54 369.68" style="fill:#263238"></polygon><polygon points="303.25 358.96 305.68 369.68 310.54 369.68 308.11 358.96 303.25 358.96"></polygon><polygon points="197.06 358.96 194.63 369.68 199.5 369.68 201.93 358.96 197.06 358.96"></polygon><path d="M186.4,409h0c-1.55,0-2.67-1.92-2.23-3.84L206,308.93h4.86l-22.2,97.9A2.5,2.5,0,0,1,186.4,409Z" style="fill:#263238"></path><polygon points="204.79 314.14 209.66 314.14 210.84 308.93 205.97 308.93 204.79 314.14"></polygon><path d="M318.77,409h0c1.56,0,2.68-1.92,2.24-3.84L299.2,308.93h-4.86l22.19,97.9A2.51,2.51,0,0,0,318.77,409Z" style="fill:#263238"></path><polygon points="299.2 308.93 294.34 308.93 295.52 314.14 300.38 314.14 299.2 308.93"></polygon><rect x="162.73" y="168.57" width="179.72" height="135.68" style="fill:#407BFF"></rect><rect x="162.73" y="168.57" width="179.72" height="135.68" style="fill:#fff;opacity:0.7000000000000001"></rect><path d="M292,257.91a11.86,11.86,0,0,1-11.86,11.86V257.91Z" style="fill:#fff;opacity:0.7000000000000001"></path><polygon points="213.37 212.15 213.37 210.93 189.07 210.93 189.07 212.15 200.62 212.15 200.62 248.6 189.07 248.6 189.07 249.81 200.62 249.81 200.62 286.26 189.07 286.26 189.07 287.48 213.37 287.48 213.37 286.26 201.83 286.26 201.83 249.81 213.37 249.81 213.37 248.6 201.83 248.6 201.83 212.15 213.37 212.15" style="fill:#263238"></polygon><path d="M212.81,226.12h6.43a0,0,0,0,1,0,0v8.5a0,0,0,0,1,0,0h-6.43a2.88,2.88,0,0,1-2.88-2.88V229A2.88,2.88,0,0,1,212.81,226.12Z" transform="translate(429.18 460.74) rotate(180)" style="fill:#263238"></path><path d="M212.81,263.78h6.43a0,0,0,0,1,0,0v8.51a0,0,0,0,1,0,0h-6.43a2.88,2.88,0,0,1-2.88-2.88v-2.74A2.88,2.88,0,0,1,212.81,263.78Z" transform="translate(429.18 536.07) rotate(180)" style="fill:#263238"></path><path d="M186.08,263.78h6.43a0,0,0,0,1,0,0v8.51a0,0,0,0,1,0,0h-6.43a2.88,2.88,0,0,1-2.88-2.88v-2.74A2.88,2.88,0,0,1,186.08,263.78Z" style="fill:#263238"></path><path d="M186.08,226.12h6.43a0,0,0,0,1,0,0v8.5a0,0,0,0,1,0,0h-6.43a2.88,2.88,0,0,1-2.88-2.88V229a2.88,2.88,0,0,1,2.88-2.88Z" style="fill:#263238"></path><path d="M190.13,182.58h6.43a0,0,0,0,1,0,0v8.51a0,0,0,0,1,0,0h-6.43a2.88,2.88,0,0,1-2.88-2.88v-2.74A2.88,2.88,0,0,1,190.13,182.58Z" style="fill:#263238"></path><path d="M305.43,273.71h6.43a0,0,0,0,1,0,0v8.51a0,0,0,0,1,0,0h-6.43a2.88,2.88,0,0,1-2.88-2.88v-2.74A2.88,2.88,0,0,1,305.43,273.71Z" transform="translate(29.25 585.17) rotate(-90)" style="fill:#263238"></path><polygon points="261.43 212.15 261.43 210.93 237.13 210.93 237.13 212.15 248.68 212.15 248.68 248.6 237.13 248.6 237.13 249.81 248.68 249.81 248.68 286.26 237.13 286.26 237.13 287.48 261.43 287.48 261.43 286.26 249.89 286.26 249.89 249.81 261.43 249.81 261.43 248.6 249.89 248.6 249.89 212.15 261.43 212.15" style="fill:#263238"></polygon><path d="M260.87,226.12h6.43a0,0,0,0,1,0,0v8.5a0,0,0,0,1,0,0h-6.43a2.88,2.88,0,0,1-2.88-2.88V229A2.88,2.88,0,0,1,260.87,226.12Z" transform="translate(525.3 460.74) rotate(180)" style="fill:#263238"></path><path d="M294.25,223.69h6.43a0,0,0,0,1,0,0v8.5a0,0,0,0,1,0,0h-6.43a2.88,2.88,0,0,1-2.88-2.88v-2.74A2.88,2.88,0,0,1,294.25,223.69Z" style="fill:#263238"></path><path d="M294.25,203.52h6.43a0,0,0,0,1,0,0V212a0,0,0,0,1,0,0h-6.43a2.88,2.88,0,0,1-2.88-2.88V206.4A2.88,2.88,0,0,1,294.25,203.52Z" style="fill:#263238"></path><path d="M312.61,223.69H319a0,0,0,0,1,0,0v8.5a0,0,0,0,1,0,0h-6.43a2.88,2.88,0,0,1-2.88-2.88v-2.74A2.88,2.88,0,0,1,312.61,223.69Z" transform="translate(628.78 455.88) rotate(180)" style="fill:#263238"></path><path d="M303.94,237.86h6.43a0,0,0,0,1,0,0v8.51a0,0,0,0,1,0,0h-6.43a2.88,2.88,0,0,1-2.88-2.88v-2.74A2.88,2.88,0,0,1,303.94,237.86Z" transform="translate(63.6 547.83) rotate(-90)" style="fill:#263238"></path><path d="M312.61,203.52H319a0,0,0,0,1,0,0V212a0,0,0,0,1,0,0h-6.43a2.88,2.88,0,0,1-2.88-2.88V206.4A2.88,2.88,0,0,1,312.61,203.52Z" transform="translate(628.78 415.54) rotate(180)" style="fill:#263238"></path><path d="M260.87,263.78h6.43a0,0,0,0,1,0,0v8.51a0,0,0,0,1,0,0h-6.43a2.88,2.88,0,0,1-2.88-2.88v-2.74A2.88,2.88,0,0,1,260.87,263.78Z" transform="translate(525.3 536.07) rotate(180)" style="fill:#263238"></path><path d="M234.14,263.78h6.43a0,0,0,0,1,0,0v8.51a0,0,0,0,1,0,0h-6.43a2.88,2.88,0,0,1-2.88-2.88v-2.74A2.88,2.88,0,0,1,234.14,263.78Z" style="fill:#263238"></path><path d="M234.14,226.12h6.43a0,0,0,0,1,0,0v8.5a0,0,0,0,1,0,0h-6.43a2.88,2.88,0,0,1-2.88-2.88V229A2.88,2.88,0,0,1,234.14,226.12Z" style="fill:#263238"></path><path d="M225.23,176.06a11.85,11.85,0,0,1-11.86,11.85V176.06Z" style="fill:#fff;opacity:0.7000000000000001"></path><path d="M225.23,176.06a11.85,11.85,0,0,0,11.86,11.85V176.06Z" style="fill:#fff;opacity:0.7000000000000001"></path><rect x="291.37" y="174.47" width="28.35" height="3.17" transform="translate(611.08 352.12) rotate(180)" style="fill:#407BFF"></rect><path d="M278.56,197.59a11.86,11.86,0,0,1-11.86-11.86h11.86Z" style="fill:#fff;opacity:0.7000000000000001"></path><path d="M278.56,197.59a11.86,11.86,0,0,0-11.86,11.85h11.86Z" style="fill:#fff;opacity:0.7000000000000001"></path><rect x="199.81" y="226.12" width="20.25" height="8.51" transform="translate(440.3 20.44) rotate(90)" style="fill:#407BFF"></rect><rect x="199.81" y="263.78" width="20.25" height="8.51" transform="translate(477.97 58.11) rotate(90)" style="fill:#407BFF"></rect><rect x="182.39" y="263.78" width="20.25" height="8.51" transform="translate(-75.52 460.55) rotate(-90)" style="fill:#407BFF"></rect><rect x="182.39" y="226.12" width="20.25" height="8.51" transform="translate(-37.86 422.89) rotate(-90)" style="fill:#407BFF"></rect><polygon points="192.31 176.71 192.31 193.31 180.57 193.31 180.57 201.82 200.82 201.82 200.82 176.71 192.31 176.71" style="fill:#407BFF"></polygon><rect x="247.87" y="226.12" width="20.25" height="8.51" transform="translate(488.36 -27.62) rotate(90)" style="fill:#407BFF"></rect><rect x="247.87" y="263.78" width="20.25" height="8.51" transform="translate(526.03 10.05) rotate(90)" style="fill:#407BFF"></rect><rect x="230.45" y="263.78" width="20.25" height="8.5" transform="translate(-27.46 508.61) rotate(-90)" style="fill:#407BFF"></rect><rect x="230.45" y="226.12" width="20.25" height="8.5" transform="translate(10.2 470.95) rotate(-90)" style="fill:#407BFF"></rect><polygon points="290.5 269.05 290.5 289.3 299.01 289.3 299.01 277.55 315.41 277.55 315.41 289.3 323.92 289.3 323.92 269.05 290.5 269.05" style="fill:#407BFF"></polygon><rect x="282.16" y="208.27" width="47.11" height="17.36" transform="translate(88.77 522.66) rotate(-90)" style="fill:#407BFF"></rect><g style="opacity:0.30000000000000004"><rect x="199.81" y="226.12" width="20.25" height="8.51" transform="translate(440.3 20.44) rotate(90)" style="fill:#fff"></rect><rect x="199.81" y="263.78" width="20.25" height="8.51" transform="translate(477.97 58.11) rotate(90)" style="fill:#fff"></rect><rect x="182.39" y="263.78" width="20.25" height="8.51" transform="translate(-75.52 460.55) rotate(-90)" style="fill:#fff"></rect><rect x="182.39" y="226.12" width="20.25" height="8.51" transform="translate(-37.86 422.89) rotate(-90)" style="fill:#fff"></rect><polygon points="192.31 176.71 192.31 193.31 180.57 193.31 180.57 201.82 200.82 201.82 200.82 176.71 192.31 176.71" style="fill:#fff"></polygon><rect x="247.87" y="226.12" width="20.25" height="8.51" transform="translate(488.36 -27.62) rotate(90)" style="fill:#fff"></rect><rect x="247.87" y="263.78" width="20.25" height="8.51" transform="translate(526.03 10.05) rotate(90)" style="fill:#fff"></rect><rect x="230.45" y="263.78" width="20.25" height="8.5" transform="translate(-27.46 508.61) rotate(-90)" style="fill:#fff"></rect><rect x="230.45" y="226.12" width="20.25" height="8.5" transform="translate(10.2 470.95) rotate(-90)" style="fill:#fff"></rect><polygon points="290.5 269.05 290.5 289.3 299.01 289.3 299.01 277.55 315.41 277.55 315.41 289.3 323.92 289.3 323.92 269.05 290.5 269.05" style="fill:#fff"></polygon><rect x="282.16" y="208.27" width="47.11" height="17.36" transform="translate(88.77 522.66) rotate(-90)" style="fill:#fff"></rect></g><rect x="212.97" y="172.48" width="24.57" height="3.98" style="fill:#263238"></rect><rect x="278.15" y="185.33" width="3.98" height="24.57" style="fill:#263238"></rect><rect x="279.71" y="255.92" width="12.69" height="3.98" style="fill:#263238"></rect><path d="M173.68,173.26V300.17H330.82V173.26ZM328.39,256.7h-47v-81h47Zm-152.28-81H278.93V297.74H176.11ZM281.36,297.74V259.13h47v38.61Z" style="fill:#263238"></path></g><g id="freepik--Icons--inject-61"><path d="M317.42,190.42l3.13-8.8a12.93,12.93,0,1,1,5.65,5.68Z" style="fill:#407BFF"></path><path d="M317.42,190.42l3.13-8.8a12.93,12.93,0,1,1,5.65,5.68Z" style="opacity:0.2"></path><path d="M330.68,175a3.84,3.84,0,0,1-1.06-3c0-1.91.73-3.46,2.41-3.46s2.42,1.55,2.42,3.46a3.84,3.84,0,0,1-1.07,3c3,.32,5.32,1.77,5.32,4.66H325.36C325.36,176.78,327.65,175.33,330.68,175Z" style="fill:#fff"></path><path d="M217.36,215.06l3.13-8.8a13,13,0,1,1,5.65,5.68Z" style="fill:#407BFF"></path><path d="M217.36,215.06l3.13-8.8a13,13,0,1,1,5.65,5.68Z" style="opacity:0.2"></path><path d="M230.62,199.66a3.84,3.84,0,0,1-1.07-3c0-1.92.74-3.47,2.42-3.47s2.41,1.55,2.41,3.47a3.84,3.84,0,0,1-1.06,3c3,.31,5.32,1.76,5.32,4.65H225.3C225.3,201.42,227.58,200,230.62,199.66Z" style="fill:#fff"></path><path d="M286.55,273.69l-3.12-8.8a12.93,12.93,0,1,0-11.54,7.1,12.89,12.89,0,0,0,5.88-1.42Z" style="fill:#263238"></path><path d="M286.55,273.69l-3.12-8.8a12.93,12.93,0,1,0-11.54,7.1,12.89,12.89,0,0,0,5.88-1.42Z" style="fill:#fff;opacity:0.5"></path><path d="M273.29,258.28a3.84,3.84,0,0,0,1.07-3c0-1.91-.73-3.47-2.42-3.47s-2.41,1.56-2.41,3.47a3.84,3.84,0,0,0,1.06,3c-3,.32-5.31,1.76-5.31,4.65h13.33C278.61,260,276.33,258.6,273.29,258.28Z" style="fill:#fff"></path></g><g id="freepik--speech-bubble-2--inject-61"><path d="M391.07,199.23H361.25a5.68,5.68,0,0,0-5.68,5.68v.41l-4.83,3.29,4.83,3.29v.42a5.68,5.68,0,0,0,5.68,5.68h29.82a5.68,5.68,0,0,0,5.68-5.68v-7.41A5.68,5.68,0,0,0,391.07,199.23Z" style="fill:#407BFF"></path><path d="M384.19,205.25h-7.75a1.3,1.3,0,0,1-1.3-1.29h0a1.3,1.3,0,0,1,1.3-1.3h7.75a1.3,1.3,0,0,1,1.29,1.3h0A1.29,1.29,0,0,1,384.19,205.25Z" style="fill:#263238"></path><path d="M389.17,209.65H376.44a1.3,1.3,0,0,1-1.3-1.3h0a1.3,1.3,0,0,1,1.3-1.3h12.73a1.3,1.3,0,0,1,1.3,1.3h0A1.3,1.3,0,0,1,389.17,209.65Z" style="fill:#263238"></path><path d="M386.13,214h-9.69a1.3,1.3,0,0,1-1.3-1.3h0a1.3,1.3,0,0,1,1.3-1.29h9.69a1.3,1.3,0,0,1,1.3,1.29h0A1.3,1.3,0,0,1,386.13,214Z" style="fill:#263238"></path><g style="opacity:0.8"><path d="M363.27,213a1.66,1.66,0,0,0,3.21,0A28.64,28.64,0,0,0,363.27,213Z" style="fill:#fff"></path><path d="M369.75,211.93c-.4-1.53-1-3.78-1.09-4.8a4.06,4.06,0,0,0-3.12-3.72s0,0,0-.07a.68.68,0,0,0-1.36,0,.25.25,0,0,0,0,.07,4.07,4.07,0,0,0-3.13,3.72,47.23,47.23,0,0,1-1.09,4.8.73.73,0,0,0,.83.91,29.43,29.43,0,0,1,8.1,0A.73.73,0,0,0,369.75,211.93Z" style="fill:#fff"></path></g></g><g id="freepik--speech-bubble-1--inject-61"><path d="M130.51,101.59h-44A8.38,8.38,0,0,0,78.11,110v10.94a8.38,8.38,0,0,0,8.38,8.38h21.18l5,7.4,5.05-7.4h12.75a8.38,8.38,0,0,0,8.38-8.38V110A8.38,8.38,0,0,0,130.51,101.59Z" style="fill:#407BFF"></path><path d="M102.45,115.05a10.54,10.54,0,1,1-10.54-10.54A10.54,10.54,0,0,1,102.45,115.05Z" style="fill:#407BFF"></path><path d="M102.45,115.05a10.54,10.54,0,1,1-10.54-10.54A10.54,10.54,0,0,1,102.45,115.05Z" style="fill:#fff;opacity:0.9"></path><path d="M100.3,115.05a8.4,8.4,0,1,1-8.39-8.4A8.39,8.39,0,0,1,100.3,115.05Z" style="fill:#407BFF"></path><path d="M100.3,115.05a8.4,8.4,0,1,1-8.39-8.4A8.39,8.39,0,0,1,100.3,115.05Z" style="fill:#fff;opacity:0.5"></path><polygon points="97.31 115.51 91.44 115.51 91.44 108.39 92.37 108.39 92.37 114.58 97.31 114.58 97.31 115.51" style="fill:#263238"></polygon><path d="M120.35,110.48H108.9a1.92,1.92,0,0,1-1.91-1.91h0a1.92,1.92,0,0,1,1.91-1.92h11.45a1.92,1.92,0,0,1,1.91,1.92h0A1.92,1.92,0,0,1,120.35,110.48Z" style="fill:#263238"></path><path d="M127.7,117H108.9a1.91,1.91,0,0,1-1.91-1.91h0a1.91,1.91,0,0,1,1.91-1.91h18.8a1.91,1.91,0,0,1,1.92,1.91h0A1.91,1.91,0,0,1,127.7,117Z" style="fill:#263238"></path><path d="M123.21,123.45H108.9a1.92,1.92,0,0,1-1.91-1.92h0a1.92,1.92,0,0,1,1.91-1.91h14.31a1.91,1.91,0,0,1,1.91,1.91h0A1.91,1.91,0,0,1,123.21,123.45Z" style="fill:#263238"></path></g><g id="freepik--Character--inject-61"><path d="M99.7,177s-7.14-1.12-6.08-9c0,0-2.23.8-2.67-2.42s2-6.62,2-6.62-.92-7,5.07-8.35c3.88-.87,3.71.84,3.71.84s1.6-6.94,9.7-5.35c4,.77,3.22,3.1,3.22,3.1s3.45-1.41,6.41,2.44c2.25,2.94-1.31,3-1.31,3s6.5,8.32,1.07,9.65-10.62-9.4-10.62-9.4l-7.4,6.33s-3.1,6.5-3,6.78S99.7,177,99.7,177Z" style="fill:#263238"></path><polygon points="142.67 391.29 129.39 390.25 128.99 406 140.09 406.89 142.67 391.29" style="fill:#b55b52"></polygon><polygon points="142.66 391.3 129.38 390.25 129.16 399.07 141.22 400.03 142.66 391.3" style="opacity:0.2"></polygon><path d="M127.21,333.52c-6.93-19.44-18.57-39.15-12.68-59.32l36.84-5s3,44.18,4.1,62.81c1.19,19.37-12.53,65.42-12.53,65.42l-15.19-1.29S126.62,355.39,127.21,333.52Z" style="fill:#263238"></path><path d="M126.54,331.67c-4.17-11.23-9.65-22.56-12.21-34C126.29,280.59,128.62,311.91,126.54,331.67Z" style="opacity:0.4"></path><polygon points="97.2 393.43 83.87 393.56 83.28 409.28 94.42 409.19 97.2 393.43" style="fill:#b55b52"></polygon><polygon points="97.2 393.43 83.86 393.56 83.53 402.37 95.64 402.26 97.2 393.43" style="opacity:0.2"></polygon><path d="M82.7,332.2c-1.08-20.18-2.54-50.37,4.22-59.65l41.52-.93s-11.54,44.19-15.85,62.81c-4.48,19.36-15.46,65.12-15.46,65.12l-14.42,0S77.28,355.24,82.7,332.2Z" style="fill:#263238"></path><path d="M185,191.63a4.8,4.8,0,0,0-6.77.05l-.45.46c-.6.6-1.28,1.38-1.92,2.07s-1.3,1.42-1.94,2.11c-1.3,1.38-2.59,2.72-3.89,3.93a38.9,38.9,0,0,1-3.85,3.25c-.35.25-.69.48-1,.7a36.2,36.2,0,0,1-3.61-.59,35.09,35.09,0,0,1-4.86-1.53,38.88,38.88,0,0,1-4.65-2.23c-.76-.42-1.49-.88-2.2-1.33-.35-.22-.69-.46-1-.68l-.46-.31-.19-.14-.08,0s0,0,0,0,0,0,0,.06a9.5,9.5,0,0,0-12.66,14.17l.62.55.47.39.89.71c.59.45,1.18.87,1.77,1.27a41.14,41.14,0,0,0,3.63,2.19,43,43,0,0,0,7.77,3.23c1.35.41,2.73.75,4.12,1s2.8.46,4.22.6a40,40,0,0,0,8.54-.1l1.06-.12a6.23,6.23,0,0,0,2.7-1,27.59,27.59,0,0,0,6.16-5.57,40.12,40.12,0,0,0,4.07-6,49.11,49.11,0,0,0,2.87-6.18c.4-1,.75-2.1,1.09-3.17s.58-2.1.86-3.34A4.81,4.81,0,0,0,185,191.63Z" style="fill:#b65b52"></path><path d="M183.75,198.21l-3.88-4.06c-2.29-5.44,5.2-7.18,5.2-7.18l4.68-3.4a3,3,0,0,1,3.81.6l2.73,2.82a3.11,3.11,0,0,1,.25,4.32l-3.9,3.55a6.08,6.08,0,0,1-2.58,1.51Z" style="fill:#b55b52"></path><path d="M131,189.5c9-.53,22.2,9.83,22.2,9.83,1.25,3.45-1.82,16.27-7.33,21.87,0,0-6.33,1.51-11.87-5.17C128,208.76,121.44,190.05,131,189.5Z" style="fill:#407BFF"></path><path d="M129.19,189.21a167.34,167.34,0,0,0-37,.59,12.49,12.49,0,0,0-10.4,14.88c5.76,29,1.45,61.39,5.18,67.87,0,0,41.09.72,65-.93,6.56-31.48-6.34-50.76-12.82-75.35C138,192.07,133.51,189.66,129.19,189.21Z" style="fill:#407BFF"></path><path d="M123.36,191.34a7.87,7.87,0,0,0-3.74-3.53,7.27,7.27,0,0,1-.13-4.88l-18.25-5.81c1.47,6,2.63,10.8.39,13.73,3.58,2.19,10.16,6.13,17.33,5.92S124.53,193.87,123.36,191.34Z" style="fill:#b55b52"></path><path d="M119.35,183.5l-13.7-.81c4.28,4.58,10.77,6.3,13.74,4.44A7.27,7.27,0,0,1,119.35,183.5Z" style="opacity:0.2"></path><path d="M119.39,196.75l-3-2.46-4,2S115,198.67,119.39,196.75Z" style="fill:#407BFF"></path><path d="M119.39,196.75l-3-2.46-4,2S115,198.67,119.39,196.75Z" style="opacity:0.30000000000000004"></path><path d="M97.68,167.88c2.18,7.86,3.84,13.15,9.51,15.68,11.27,5,16.31-.31,16.71-8.6.35-7.46-3.27-19.06-12.32-20.74S95.5,160,97.68,167.88Z" style="fill:#b55b52"></path><path d="M124.76,163.27c-.74-.68-2.36-.71-3.63-.5a5.54,5.54,0,0,0-3.09,1.32l-2.51.4a5.7,5.7,0,0,0-3.35-.3c-1.27.2-2.8.73-3.3,1.61a3.13,3.13,0,0,0,.1,2.28,4.73,4.73,0,0,0,1.91,2.65,4.7,4.7,0,0,0,2.35.1,4.76,4.76,0,0,0,2.2-.82,4.69,4.69,0,0,0,1-3.12,4.2,4.2,0,0,0-.26-1.64l1.49-.24a4.32,4.32,0,0,0,.27,1.65,4.72,4.72,0,0,0,1.91,2.65,3.78,3.78,0,0,0,5.54-3.84A3.16,3.16,0,0,0,124.76,163.27Zm-8.89,3.61a4.24,4.24,0,0,1-.8,2.7,5.48,5.48,0,0,1-4,.63,4.26,4.26,0,0,1-1.6-2.31,2.58,2.58,0,0,1-.13-1.82,4.39,4.39,0,0,1,2.89-1.33,4.34,4.34,0,0,1,3.16.37.78.78,0,0,1,.16.22h0A3.33,3.33,0,0,1,115.87,166.88Zm8.94-1.42a4.25,4.25,0,0,1-.79,2.69,5.41,5.41,0,0,1-4,.63,4.21,4.21,0,0,1-1.59-2.31,3.24,3.24,0,0,1-.22-1.55h0a.75.75,0,0,1,.07-.25,4.37,4.37,0,0,1,2.89-1.34,4.43,4.43,0,0,1,3.17.37A2.55,2.55,0,0,1,124.81,165.46Z" style="fill:#407BFF"></path><path d="M113,166.84c.13.7.61,1.2,1.07,1.11s.72-.73.59-1.43-.61-1.19-1.07-1.1S112.86,166.14,113,166.84Z" style="fill:#263238"></path><path d="M120.26,165.68c.13.7.61,1.19,1.06,1.1s.73-.73.59-1.43-.6-1.19-1.06-1.1S120.13,165,120.26,165.68Z" style="fill:#263238"></path><path d="M118,166.68l1.05,5.89a6.53,6.53,0,0,0,2.08-.29.78.78,0,0,0,.18-1.37A13.9,13.9,0,0,1,118,166.68Z" style="fill:#a02724"></path><path d="M108.9,165.54a.39.39,0,0,1-.21,0,.42.42,0,0,1-.19-.56,4.21,4.21,0,0,1,3-2.35.41.41,0,0,1,.46.36.42.42,0,0,1-.36.47h0a3.35,3.35,0,0,0-2.38,1.89A.42.42,0,0,1,108.9,165.54Z" style="fill:#263238"></path><path d="M122.69,163.25a.41.41,0,0,1-.37-.13,3.29,3.29,0,0,0-2.81-1.09.42.42,0,0,1-.48-.34.43.43,0,0,1,.34-.48,4.13,4.13,0,0,1,3.56,1.34.41.41,0,0,1,0,.59A.39.39,0,0,1,122.69,163.25Z" style="fill:#263238"></path><path d="M119.39,196.75l3.35-3L127,195S123.79,198.67,119.39,196.75Z" style="fill:#407BFF"></path><path d="M119.39,196.75l3.35-3L127,195S123.79,198.67,119.39,196.75Z" style="opacity:0.30000000000000004"></path><path d="M178.43,192.9c-1.28-4.65,2-7.53,3.76-10.54.31-.51,1.87-.23,1.95.84a4.94,4.94,0,0,1-.94,3.76c.94,1.18,2.34,5.31-1,8A6.09,6.09,0,0,1,178.43,192.9Z" style="fill:#b55b52"></path><path d="M122.4,174.74s-3-.24-11.3,1c1.34,2.34,3.44,4.1,7.66,3.43A3.89,3.89,0,0,0,122.4,174.74Z" style="fill:#263238"></path><path d="M116.51,177.5a7.87,7.87,0,0,1,4.79.51,4.46,4.46,0,0,1-2.53,1.14,7.7,7.7,0,0,1-4.78-.51A4.49,4.49,0,0,1,116.51,177.5Z" style="fill:#a02724"></path><path d="M122,174.73a1.72,1.72,0,0,1-1.11,1.42,43.74,43.74,0,0,1-7.4.47,2.32,2.32,0,0,1-2-.94A68.45,68.45,0,0,1,122,174.73Z" style="fill:#fff"></path><path d="M102.83,174.73a3.86,3.86,0,0,0,2.82-5c-1-4.16-1.35-5.5-1.35-5.5L112,157s-.92,3.55.81,3.32,2.12-3.32,2.12-3.32,2.9,3.45,4.69,2.61-1.66-3.83-1.66-3.83-.71-5.1-8.66-3.33-20.36,11.58-9.13,23.19Z" style="fill:#263238"></path><path d="M96.06,177.08a8.26,8.26,0,0,0,5.77,2.63c2.92.08,3.69-2.71,2.3-5.1-1.24-2.14-4.26-4.77-6.91-3.7S94.25,175.1,96.06,177.08Z" style="fill:#b55b52"></path><path d="M127.77,227.82a160.7,160.7,0,0,0-6.39-26.43.8.8,0,0,0,.17-.33l.08-.39,5.43-3.89,0-1.76-2.86-1.62-1.77,2.88a.64.64,0,0,0-.78-.33,9.39,9.39,0,0,1-4.66.22.59.59,0,0,0-.61.26L114,194.87l-2.51,3,5.89,2.85.1.37a.86.86,0,0,0,.51.54l0,.33a2.72,2.72,0,0,0,0,.57c.39,3.16,3.84,32.68,1.69,62.84l5.71,2.65,5.07-2.65S130.43,244.29,127.77,227.82Z" style="fill:#407BFF"></path><path d="M127.77,227.82a160.7,160.7,0,0,0-6.39-26.43.8.8,0,0,0,.17-.33l.08-.39,5.43-3.89,0-1.76-2.86-1.62-1.77,2.88a.64.64,0,0,0-.78-.33,9.39,9.39,0,0,1-4.66.22.59.59,0,0,0-.61.26L114,194.87l-2.51,3,5.89,2.85.1.37a.86.86,0,0,0,.51.54l0,.33a2.72,2.72,0,0,0,0,.57c.39,3.16,3.84,32.68,1.69,62.84l5.71,2.65,5.07-2.65S130.43,244.29,127.77,227.82Z" style="opacity:0.5"></path><polygon points="140.97 229.54 118.57 229.54 107.17 256.97 107.87 257.58 130.28 257.58 141.68 230.15 140.97 229.54" style="fill:#263238"></polygon><polygon points="140.97 229.54 118.57 229.54 107.17 256.97 107.87 257.58 130.28 257.58 141.68 230.15 140.97 229.54" style="fill:#fff;opacity:0.4"></polygon><polygon points="130.28 257.58 107.87 257.58 119.27 230.15 141.68 230.15 130.28 257.58" style="fill:#263238"></polygon><polygon points="135.17 229.14 126.64 229.14 125.33 232.29 125.62 232.54 134.16 232.54 135.47 229.39 135.17 229.14" style="fill:#407BFF"></polygon><polygon points="135.17 229.14 126.64 229.14 125.33 232.29 125.62 232.54 134.16 232.54 135.47 229.39 135.17 229.14" style="opacity:0.5"></polygon><polygon points="134.16 232.54 135.47 229.39 126.93 229.39 125.62 232.54 134.16 232.54" style="fill:#407BFF"></polygon><polygon points="134.16 232.54 135.47 229.39 126.93 229.39 125.62 232.54 134.16 232.54" style="fill:#fff;opacity:0.2"></polygon><path d="M101.26,246.75l-.54,5.59c1.54,5.69,8.52,2.44,8.52,2.44l4-.21a3,3,0,0,0,2.63-2.82l.41-3.9a3.11,3.11,0,0,0-2.47-3.56l-3.46-.39a6.16,6.16,0,0,0-3,.41Z" style="fill:#b55b52"></path><path d="M103,246.42l-.39-.08-3.73-.82c-1.27-.28-2.52-.59-3.76-.91a64.76,64.76,0,0,1-7-2.19,25.34,25.34,0,0,1-5.62-2.82,9.54,9.54,0,0,1-1-.85,24.38,24.38,0,0,1,1-4.8,32.67,32.67,0,0,1,1.25-3.44c.47-1.17,1-2.35,1.6-3.53,1.19-2.36,2.53-4.75,4-7.09.72-1.18,1.5-2.34,2.26-3.49l1.17-1.7,1.07-1.53.36-.51A9.49,9.49,0,0,0,79,201.29L78,202.43l-.81,1c-.52.7-1,1.4-1.51,2.1-1,1.4-1.9,2.85-2.79,4.32a73.82,73.82,0,0,0-4.78,9.29,53.71,53.71,0,0,0-3.34,10.52A34.5,34.5,0,0,0,64.36,242l.09.6a6.87,6.87,0,0,0,.69,2.11,18.23,18.23,0,0,0,4.63,5.67A23.94,23.94,0,0,0,75,253.64a29.2,29.2,0,0,0,5,1.75,43.73,43.73,0,0,0,4.8.95,55.87,55.87,0,0,0,9.16.41c1.5-.05,3-.17,4.45-.32s2.88-.38,4.48-.69a4.76,4.76,0,0,0,.13-9.32Z" style="fill:#b65b52"></path><path d="M89,190.69c-8.5,3-16.51,17.43-16.51,17.43.4,5.24,8.69,17.1,14.6,19.66a29.16,29.16,0,0,0,8.81-13.31C98.54,205.43,93.32,192,89,190.69Z" style="fill:#407BFF"></path><path d="M102.88,186.79s5.88,7.13,13.54,7.5c-4.46,2.11-5.21,7.12-5.21,7.12s-9.56-2.91-11.37-13.09A3.72,3.72,0,0,1,102.88,186.79Z" style="fill:#fff"></path><path d="M119.62,187.81s3,3.45,3.12,5.94c3.59,1,5.31,6.27,5.31,6.27s.66-7.52-5-11.57A6,6,0,0,0,119.62,187.81Z" style="fill:#fff"></path><path d="M104.87,412.5l-.37-2a1.24,1.24,0,0,0-.83-.95l-8.73-2.86A25.26,25.26,0,0,1,83,407l-1.84,5.33A1.24,1.24,0,0,0,82.37,414h21.28A1.23,1.23,0,0,0,104.87,412.5Z" style="fill:#263238"></path><path d="M97.69,407.65a13.26,13.26,0,0,1-2.86-.39.22.22,0,0,1-.17-.2.29.29,0,0,1,.12-.25c.37-.24,3.63-2.34,4.91-1.82a.84.84,0,0,1,.52.71,1.51,1.51,0,0,1-.43,1.38A3.19,3.19,0,0,1,97.69,407.65Zm-2.13-.76c1.91.39,3.34.33,3.89-.17a1,1,0,0,0,.26-.91.4.4,0,0,0-.25-.35C98.77,405.18,96.89,406.09,95.56,406.89Z" style="fill:#407BFF"></path><path d="M94.89,407.27a.2.2,0,0,1-.11,0,.22.22,0,0,1-.12-.2c0-.14,0-3.26,1.21-4.31a1.35,1.35,0,0,1,1.11-.35.87.87,0,0,1,.85.76c.14,1.18-1.67,3.45-2.81,4.09A.22.22,0,0,1,94.89,407.27Zm1.87-4.4a.83.83,0,0,0-.57.22c-.71.63-1,2.42-1,3.45,1-.8,2.24-2.52,2.14-3.29,0-.15-.08-.33-.45-.37Z" style="fill:#407BFF"></path><path d="M150.51,411.63l-.19-2a1.3,1.3,0,0,0-.77-1l-8.65-3.7a26,26,0,0,1-12.19-.8l-2.35,5.29a1.28,1.28,0,0,0,1,1.78l21.73,1.9A1.26,1.26,0,0,0,150.51,411.63Z" style="fill:#263238"></path><path d="M143.62,406a13,13,0,0,1-2.88-.65.22.22,0,0,1-.16-.22.28.28,0,0,1,.15-.24c.4-.22,3.91-2.07,5.17-1.42a.86.86,0,0,1,.47.77,1.51,1.51,0,0,1-.57,1.37A3.19,3.19,0,0,1,143.62,406Zm-2.11-1c1.92.57,3.39.64,4,.17a1,1,0,0,0,.35-.9.4.4,0,0,0-.22-.38C145,403.61,142.94,404.37,141.51,405.07Z" style="fill:#407BFF"></path><path d="M140.8,405.39a.19.19,0,0,1-.12,0,.21.21,0,0,1-.1-.21c0-.14.32-3.32,1.63-4.29a1.39,1.39,0,0,1,1.16-.26.89.89,0,0,1,.8.85c0,1.23-2,3.37-3.24,3.93A.2.2,0,0,1,140.8,405.39Zm2.3-4.32a.84.84,0,0,0-.6.18c-.78.58-1.19,2.38-1.34,3.43,1.1-.73,2.51-2.37,2.48-3.17,0-.16-.06-.34-.42-.42Z" style="fill:#407BFF"></path><path d="M189,184.76s-.87-3.73-1.19-5.59c-.08-.49-.25-.8-.5-.89s-.9.22-.9.22l-.25-.33a1.53,1.53,0,0,1,1.31-.28,1.43,1.43,0,0,1,.75,1.21c.31,1.84,1.18,5.52,1.19,5.56Z" style="fill:#263238"></path><rect x="185.03" y="175.42" width="0.68" height="3.44" transform="translate(-32.78 42.41) rotate(-12)" style="fill:#263238"></rect><path d="M189.17,188.1c1.38,6.51,1.87,11.91,1.1,12.08s-2.53-5-3.92-11.48-1.87-11.91-1.09-12.08S187.79,181.6,189.17,188.1Z" style="fill:#407BFF"></path><path d="M189.17,188.1c1.38,6.51,1.87,11.91,1.1,12.08s-2.53-5-3.92-11.48-1.87-11.91-1.09-12.08S187.79,181.6,189.17,188.1Z" style="opacity:0.5"></path><path d="M185.3,182.82l2.44-.52c-.09-.31-.17-.61-.26-.91l-2.31.49C185.21,182.19,185.25,182.5,185.3,182.82Z" style="fill:#fff;opacity:0.5"></path></g><g id="freepik--Furniture--inject-61"><rect x="425.2" y="220.69" width="4.05" height="4.05" transform="translate(814.34 509.52) rotate(-171)" style="fill:#263238"></rect><rect x="425.2" y="220.69" width="4.05" height="4.05" transform="translate(814.34 509.52) rotate(-171)" style="fill:#fff;opacity:0.5"></rect><rect x="426.25" y="219.79" width="2.23" height="4.05" transform="translate(141.42 609.21) rotate(-81)" style="opacity:0.30000000000000004"></rect><rect x="424.13" y="217.9" width="7.08" height="3.95" rx="1.02" transform="translate(815.68 503.95) rotate(-171)" style="fill:#263238"></rect><rect x="424.13" y="217.9" width="7.08" height="3.95" rx="1.02" transform="translate(815.68 503.95) rotate(-171)" style="fill:#fff;opacity:0.5"></rect><rect x="415.63" y="222.67" width="3.65" height="3.65" transform="translate(880.61 325.22) rotate(164)" style="fill:#263238"></rect><rect x="415.63" y="222.67" width="3.65" height="3.65" transform="translate(880.61 325.22) rotate(164)" style="fill:#fff;opacity:0.5"></rect><rect x="415.4" y="222.71" width="3.65" height="2.01" transform="translate(-45.5 123.68) rotate(-16)" style="opacity:0.30000000000000004"></rect><rect x="413.55" y="220.23" width="6.37" height="3.56" rx="1.02" transform="translate(878.53 320.56) rotate(164)" style="fill:#263238"></rect><rect x="413.55" y="220.23" width="6.37" height="3.56" rx="1.02" transform="translate(878.53 320.56) rotate(164)" style="fill:#fff;opacity:0.5"></rect><rect x="434.02" y="225.59" width="3.65" height="3.65" transform="translate(201.68 -204.85) rotate(34)" style="fill:#263238"></rect><rect x="434.02" y="225.59" width="3.65" height="3.65" transform="translate(201.68 -204.85) rotate(34)" style="fill:#fff;opacity:0.5"></rect><rect x="435.3" y="224.91" width="2.01" height="3.65" transform="translate(4.36 461.66) rotate(-56)" style="opacity:0.30000000000000004"></rect><rect x="434.1" y="223.49" width="6.37" height="3.56" rx="1.02" transform="translate(200.73 -206.02) rotate(34)" style="fill:#263238"></rect><rect x="434.1" y="223.49" width="6.37" height="3.56" rx="1.02" transform="translate(200.73 -206.02) rotate(34)" style="fill:#fff;opacity:0.5"></rect><circle cx="424.62" cy="239.11" r="15.12" transform="translate(-30.35 64.54) rotate(-8.39)" style="fill:#407BFF"></circle><circle cx="424.62" cy="239.11" r="12.05" transform="translate(176.82 658.73) rotate(-88.82)" style="fill:#407BFF"></circle><circle cx="424.62" cy="239.11" r="12.05" transform="translate(176.82 658.73) rotate(-88.82)" style="fill:#fff;opacity:0.5"></circle><path d="M417.53,238.67l7.65,1.21,1.49-9.45a.67.67,0,0,0-.55-.76h0a.65.65,0,0,0-.76.56l-1.29,8.12-6.33-1a.67.67,0,0,0-.77.55h0A.68.68,0,0,0,417.53,238.67Z" style="fill:#263238"></path><polygon points="430.38 253.1 431.21 256.38 433.5 256.38 433.5 250.95 430.38 252.82 430.38 253.1" style="fill:#407BFF"></polygon><polygon points="419.01 253.1 418.18 256.38 415.89 256.38 415.89 250.95 419.01 252.82 419.01 253.1" style="fill:#407BFF"></polygon><rect x="365.6" y="256.38" width="63.46" height="126.15" style="fill:#407BFF"></rect><rect x="365.6" y="256.38" width="63.46" height="126.15" style="fill:#fff;opacity:0.4"></rect><rect x="429.06" y="256.38" width="12.1" height="126.15" style="fill:#407BFF"></rect><rect x="370.05" y="265.74" width="54.89" height="30.63" style="fill:#fff;opacity:0.4"></rect><path d="M390.34,265.74l.24,4.08c.08,1.35.83,2.38,1.74,2.38h10.35c.91,0,1.66-1,1.74-2.38l.24-4.08Z" style="fill:#407BFF"></path><rect x="370.05" y="299.72" width="54.89" height="30.63" style="fill:#fff;opacity:0.4"></rect><path d="M390.34,299.72l.24,4.08c.08,1.35.83,2.38,1.74,2.38h10.35c.91,0,1.66-1,1.74-2.38l.24-4.08Z" style="fill:#407BFF"></path><rect x="370.05" y="333.7" width="54.89" height="30.63" style="fill:#fff;opacity:0.4"></rect><path d="M390.34,333.7l.24,4.08c.08,1.35.83,2.38,1.74,2.38h10.35c.91,0,1.66-1,1.74-2.38l.24-4.08Z" style="fill:#407BFF"></path></g></svg>
